<svg xmlns="http://www.w3.org/2000/svg" width="46" height="44" viewBox="0 0 46 44">
  <g id="Group_6" data-name="Group 6" transform="translate(-1525 -988)">
    <rect id="Rectangle_2" data-name="Rectangle 2" width="46" height="44" rx="8" transform="translate(1525 988)" fill="#fff"/>
    <path id="youtube" d="M10.562,5l2.187,6.562v4.375h1.458V11.562L16.394,5H14.936L13.478,9.375,12.02,5Zm8.02,2.916a2.191,2.191,0,0,0-1.635.513c-.456.384-.581.681-.552,1.675v3.645a2.017,2.017,0,0,0,.558,1.629,2.085,2.085,0,0,0,1.629.558,2.044,2.044,0,0,0,1.64-.558,1.937,1.937,0,0,0,.547-1.629V10.1a2.16,2.16,0,0,0-.555-1.66A2.147,2.147,0,0,0,18.582,7.916Zm3.645,0v6.562a1.573,1.573,0,0,0,1.458,1.458,1.827,1.827,0,0,0,1.458-.729v.729H26.6V7.916H25.143v5.833c-.009.5-.6.729-.729.729a.672.672,0,0,1-.729-.729V7.916ZM18.582,9.375c.219,0,.729,0,.729.729v3.645c0,.706-.493.729-.729.729-.219,0-.729-.009-.729-.729V10.1C17.853,9.508,18.169,9.375,18.582,9.375ZM8.375,17.394A4.129,4.129,0,0,0,4,21.769V28.7a4.429,4.429,0,0,0,4.375,4.739H30.247a4.129,4.129,0,0,0,4.375-4.375V21.769a4.129,4.129,0,0,0-4.375-4.375Zm1.458,2.916h4.375v1.458H12.749v8.749H11.291V21.769H9.833Zm10.207,0H21.5v2.916a1.69,1.69,0,0,1,.658-.587,1.554,1.554,0,0,1,.709-.188,1.332,1.332,0,0,1,1.1.49,2.122,2.122,0,0,1,.453,1.378V28.7a1.688,1.688,0,0,1-.421,1.165,1.479,1.479,0,0,1-1.037.658,1.784,1.784,0,0,1-1.458-.729v.729H20.04ZM14.207,22.5h1.458v5.833a.785.785,0,0,0,.729.729c.592-.006.6-.558.729-.729V22.5h1.458v8.02H17.124v-.729a1.846,1.846,0,0,1-.715.57,1.694,1.694,0,0,1-.894.159,1.434,1.434,0,0,1-.943-.558,1.314,1.314,0,0,1-.365-.9Zm13.269,0a1.967,1.967,0,0,1,1.546.535,2.026,2.026,0,0,1,.5,1.569v2.27H26.6V28a1.5,1.5,0,0,0,.16.82.608.608,0,0,0,.57.239.693.693,0,0,0,.584-.2,1.732,1.732,0,0,0,.145-.9V27.6h1.458v.433a2.379,2.379,0,0,1-.456,1.774,2.2,2.2,0,0,1-1.706.6,2.089,2.089,0,0,1-1.621-.627,2.477,2.477,0,0,1-.59-1.743V24.6a2.143,2.143,0,0,1,.655-1.586A2.4,2.4,0,0,1,27.476,22.5Zm-5.249,1.094a.758.758,0,0,0-.729.729V28.7c.006.211.328.365.729.365a.716.716,0,0,0,.729-.712V24.685C22.956,23.956,22.629,23.592,22.227,23.592Zm5.1.365a.742.742,0,0,0-.729.729v.729H28.06v-.729A.7.7,0,0,0,27.331,23.956Z" transform="translate(1528.689 991.239)" fill="#404040" fill-rule="evenodd"/>
  </g>
</svg>
