<svg xmlns="http://www.w3.org/2000/svg" width="46" height="44" viewBox="0 0 46 44">
  <g id="Group_5" data-name="Group 5" transform="translate(-1525 -988)">
    <g id="Group_4" data-name="Group 4">
      <g id="Rectangle_2" data-name="Rectangle 2" transform="translate(1525 988)" fill="#fff" stroke="#fff" stroke-width="5">
        <rect width="46" height="44" rx="8" stroke="none"/>
        <rect x="2.5" y="2.5" width="41" height="39" rx="5.5" fill="none"/>
      </g>
    </g>
    <path id="linkedin-2" d="M6.248,3.01c-2.457,0-4.241,1.472-4.241,3.5s1.827,3.569,4.241,3.569c2.457,0,4.241-1.5,4.241-3.61C10.375,4.433,8.627,3.01,6.248,3.01ZM2.708,11.5A.71.71,0,0,0,2,12.206V32.738a.71.71,0,0,0,.708.708h7.08a.71.71,0,0,0,.708-.708V12.206a.71.71,0,0,0-.708-.708Zm10.62,0a.71.71,0,0,0-.708.708V32.738a.71.71,0,0,0,.708.708H19.7a.708.708,0,0,0,.708-.708V21.764a3.177,3.177,0,0,1,2.931-3.172,2.352,2.352,0,0,1,.509,0,3.177,3.177,0,0,1,2.931,3.172V32.738a.708.708,0,0,0,.708.708h6.372a.71.71,0,0,0,.708-.708V20.7c0-4.581-2.457-9.2-7.937-9.2a9.572,9.572,0,0,0-5.514,1.763V12.206a.71.71,0,0,0-.708-.708Z" transform="translate(1530 991.99)" fill="#404040"/>
  </g>
</svg>
