<svg xmlns="http://www.w3.org/2000/svg" width="44" height="44" viewBox="0 0 44 44">
  <path id="instagram-old" d="M12,3a9.014,9.014,0,0,0-9,9V38a9.014,9.014,0,0,0,9,9H38a9.014,9.014,0,0,0,9-9V12a9.014,9.014,0,0,0-9-9ZM38,8h3a1,1,0,0,1,1,1v3a1,1,0,0,1-1,1H38a1,1,0,0,1-1-1V9A1,1,0,0,1,38,8ZM25,10a15.005,15.005,0,0,1,12.68,7H42V37a5,5,0,0,1-5,5H13a5,5,0,0,1-5-5V17h4.32A15.005,15.005,0,0,1,25,10Zm0,2A13,13,0,1,0,38,25,13.012,13.012,0,0,0,25,12Zm0,4a9,9,0,1,1-9,9A9.014,9.014,0,0,1,25,16Z" transform="translate(-3 -3)" fill="#fff"/>
</svg>
